# xmcd
#
# Track frame offsets: 
#        150
#        16614
#        37108
#        53913
#        69702
#        86323
#        103095
#        125036
#        144440
#        163478
#        182996
#        199857
#        219665
#        238290
#        258177
#        275844
#        291656
#        310236
#
# Disc length: 4376 seconds
#
# Revision: 0
# Processed by: cddbd v1.4PL0 Copyright (c) Steve Scherf et al.
# Submitted via: ExactAudioCopy v0.90a11
#
DISCID=23111612
DTITLE=Sandy and Junior-As Mais Romanticas-2002-Bootleg - Sandy and Junior
DTITLE=As Mais Romanticas-2002-Bootleg
DYEAR=1900
DGENRE=
TTITLE0=Love Never Fails
TTITLE1=A Lenda
TTITLE2=Inesquecivel
TTITLE3=Precious Time
TTITLE4=O Amor Nos Guiara
TTITLE5=Quando Você Passa
TTITLE6=Não Ter
TTITLE7=Nada é Por Acaso
TTITLE8=Endless Love
TTITLE9=Com Você
TTITLE10=Right Thing To Do
TTITLE11=O Amor Faz
TTITLE12=As 4 Estações
TTITLE13=Em Cada Sonho
TTITLE14=Não Dá Pra Não Pensar
TTITLE15=Olha o Que o Amor Me Faz
TTITLE16=Imortal
TTITLE17=When You Need Somebody
EXTD=
EXTT0=
EXTT1=
EXTT2=
EXTT3=
EXTT4=
EXTT5=
EXTT6=
EXTT7=
EXTT8=
EXTT9=
EXTT10=
EXTT11=
EXTT12=
EXTT13=
EXTT14=
EXTT15=
EXTT16=
EXTT17=
PLAYORDER=
